<svg width="24" height="15" viewBox="0 0 24 15" fill="none" xmlns="http://www.w3.org/2000/svg">
<g id="Mastercard">
<path id="Icon" d="M14.6531 12.7453H8.41553V1.53557H14.6532L14.6531 12.7453Z" fill="#FF5F00"/>
<path id="Icon_2" d="M8.81098 7.14069C8.81098 4.86679 9.87568 2.84119 11.5336 1.5358C10.2786 0.546238 8.72643 0.00916671 7.12824 0.0115281C3.19133 0.0115281 0 3.20332 0 7.14069C0 11.0781 3.19133 14.2699 7.12824 14.2699C8.72647 14.2722 10.2787 13.7352 11.5337 12.7456C9.87591 11.4404 8.81098 9.41471 8.81098 7.14069Z" fill="#EB001B"/>
<path id="Icon_3" d="M23.0682 7.14069C23.0682 11.0781 19.8769 14.2699 15.94 14.2699C14.3416 14.2722 12.7892 13.7351 11.5339 12.7456C13.1923 11.4402 14.257 9.41471 14.257 7.14069C14.257 4.86668 13.1923 2.84119 11.5339 1.5358C12.7891 0.546268 14.3415 0.0092081 15.9399 0.0115279C19.8768 0.0115279 23.0681 3.20332 23.0681 7.14069" fill="#F79E1B"/>
</g>
</svg>
