<svg width="24" height="8" viewBox="0 0 24 8" fill="none" xmlns="http://www.w3.org/2000/svg">
<g id="Visa">
<path id="Icon" d="M10.3418 7.61041H8.3952L9.6118 0.133606H11.5586L10.3418 7.61041Z" fill="white"/>
<path id="Icon_2" d="M6.7576 0.133606L4.9018 5.27621L4.6822 4.16881L4.6824 4.16921L4.0274 0.806806C4.0274 0.806806 3.9482 0.133606 3.104 0.133606H0.036L0 0.260206C0 0.260206 0.9382 0.455406 2.0362 1.11481L3.7274 7.61061H5.7556L8.8526 0.133606L6.7576 0.133606Z" fill="white"/>
<path id="Icon_3" fill-rule="evenodd" clip-rule="evenodd" d="M23.856 7.61039H22.0686L21.8406 6.49979H19.366L18.9602 7.61039H16.931L19.8342 0.690592C19.8342 0.690592 20.0102 0.133392 20.7328 0.133392H22.2976L23.856 7.61039ZM20.9494 2.16759L19.9266 4.96559H21.5248L20.9494 2.16759Z" fill="white"/>
<path id="Icon_4" d="M17.0832 1.9316L17.361 0.326C17.361 0.326 16.5038 0 15.6102 0C14.6442 0 12.3502 0.4222 12.3502 2.4752C12.3502 4.4068 15.0426 4.4308 15.0426 5.4454C15.0426 6.46 12.6276 6.2782 11.8306 5.6384L11.5412 7.3172C11.5412 7.3172 12.4104 7.7394 13.7384 7.7394C15.0668 7.7394 17.0708 7.0516 17.0708 5.1796C17.0708 3.2356 14.3542 3.0546 14.3542 2.2094C14.3544 1.364 16.2502 1.4726 17.0832 1.9316Z" fill="white"/>
<path id="Icon_5" d="M4.6824 4.16899L4.0274 0.806592C4.0274 0.806592 3.9482 0.133392 3.104 0.133392H0.036L0 0.259992C0 0.259992 1.4746 0.565592 2.889 1.71059C4.2414 2.80499 4.6824 4.16899 4.6824 4.16899Z" fill="white"/>
</g>
</svg>
